<svg width="68" height="71" viewBox="0 0 68 71" fill="none" xmlns="http://www.w3.org/2000/svg">
<g clip-path="url(#clip0_6021_160)">
<path d="M1429 94.989C1429 94.9951 1429 95 1428.99 95V95C1428.98 95 1428.98 94.9953 1428.98 94.9894C1428.45 81.6509 1417.47 71 1404 71H1145.52C1140.45 71 1136.3 67.1673 1134.81 62.3261C1128.54 41.8724 1109.51 27 1087 27H60C37.492 27 18.4585 41.8724 12.1889 62.3261C10.705 67.1673 6.54564 71 1.48211 71H-466C-479.469 71 -490.448 81.6509 -490.978 94.9894C-490.978 94.9953 -490.983 95 -490.989 95V95C-490.995 95 -491 94.9951 -491 94.989V10C-491 4.47715 -486.523 0 -481 0H1419C1424.52 0 1429 4.47715 1429 10V94.989Z" fill="#7027E2"/>
</g>
<defs>
<clipPath id="clip0_6021_160">
<rect width="68" height="71" fill="white"/>
</clipPath>
</defs>
</svg>
