<svg width="24" height="24" viewBox="0 0 24 24" fill="none" xmlns="http://www.w3.org/2000/svg">
<g clip-path="url(#clip0_6029_153)">
<path d="M24 23.989C24 23.9951 23.9951 24 23.989 24V24C23.9832 24 23.9783 23.9953 23.9781 23.9894C23.4478 10.6509 12.4686 0 -1 0H-259.482C-264.546 0 -268.705 -3.83269 -270.189 -8.67389C-276.459 -29.1276 -295.492 -44 -318 -44H-1345C-1367.51 -44 -1386.54 -29.1276 -1392.81 -8.67388C-1394.3 -3.83268 -1398.45 0 -1403.52 0H-1871C-1884.47 0 -1895.45 10.6509 -1895.98 23.9894C-1895.98 23.9953 -1895.98 24 -1895.99 24V24C-1896 24 -1896 23.9951 -1896 23.989V-61C-1896 -66.5228 -1891.52 -71 -1886 -71H14C19.5229 -71 24 -66.5228 24 -61V23.989Z" fill="#7027E2"/>
</g>
<defs>
<clipPath id="clip0_6029_153">
<rect width="24" height="24" fill="white"/>
</clipPath>
</defs>
</svg>
