<svg width="68" height="71" viewBox="0 0 68 71" fill="none" xmlns="http://www.w3.org/2000/svg">
<g clip-path="url(#clip0_6021_160)">
<path d="M347 94.989C347 94.9951 346.995 95 346.989 95V95C346.983 95 346.978 94.9953 346.978 94.9894C346.448 81.6509 335.469 71 322 71H63.5179C58.4543 71 54.295 67.1673 52.8111 62.3261C46.5414 41.8724 27.508 27 5 27H-1022C-1044.51 27 -1063.54 41.8724 -1069.81 62.3261C-1071.3 67.1673 -1075.45 71 -1080.52 71H-1548C-1561.47 71 -1572.45 81.6509 -1572.98 94.9894C-1572.98 94.9953 -1572.98 95 -1572.99 95V95C-1573 95 -1573 94.9951 -1573 94.989V10C-1573 4.47715 -1568.52 0 -1563 0H337C342.523 0 347 4.47715 347 10V94.989Z" fill="#7027E2"/>
</g>
<defs>
<clipPath id="clip0_6021_160">
<rect width="68" height="71" fill="white"/>
</clipPath>
</defs>
</svg>
