<svg width="40" height="20" viewBox="0 0 40 20" fill="none" xmlns="http://www.w3.org/2000/svg">
<path d="M10.016 19.384C7.984 19.384 6.224 18.992 4.736 18.208C3.248 17.424 2.096 16.336 1.28 14.944C0.464 13.536 0.0560001 11.888 0.0560001 10C0.0560001 8.128 0.464 6.488 1.28 5.08C2.096 3.672 3.248 2.576 4.736 1.792C6.224 1.008 7.984 0.615999 10.016 0.615999C12.032 0.615999 13.784 1.008 15.272 1.792C16.76 2.576 17.912 3.672 18.728 5.08C19.544 6.472 19.952 8.112 19.952 10C19.952 11.872 19.544 13.512 18.728 14.92C17.912 16.328 16.76 17.424 15.272 18.208C13.784 18.992 12.032 19.384 10.016 19.384ZM10.016 15.688C11.728 15.688 13.056 15.192 14 14.2C14.96 13.208 15.44 11.808 15.44 10C15.44 8.192 14.96 6.792 14 5.8C13.056 4.808 11.728 4.312 10.016 4.312C8.304 4.312 6.968 4.808 6.008 5.8C5.048 6.792 4.568 8.192 4.568 10C4.568 11.808 5.048 13.208 6.008 14.2C6.968 15.192 8.304 15.688 10.016 15.688ZM21.8718 7.408C21.9678 6.016 22.4238 4.816 23.2398 3.808C24.0558 2.784 25.1358 2 26.4798 1.456C27.8398 0.895999 29.3758 0.615999 31.0878 0.615999C32.7198 0.615999 34.1438 0.863999 35.3598 1.36C36.5918 1.856 37.5438 2.552 38.2158 3.448C38.9038 4.344 39.2478 5.376 39.2478 6.544C39.2478 7.456 39.0078 8.304 38.5278 9.088C38.0478 9.856 37.2878 10.624 36.2478 11.392C35.2078 12.16 33.8398 12.976 32.1438 13.84L26.9598 16.576L26.6958 15.376H39.7518V19H22.1838V15.832L29.9118 11.392C31.1438 10.688 32.1038 10.088 32.7918 9.592C33.4958 9.08 33.9918 8.608 34.2798 8.176C34.5678 7.744 34.7118 7.28 34.7118 6.784C34.7118 6.272 34.5678 5.816 34.2798 5.416C34.0078 5.016 33.5918 4.704 33.0318 4.48C32.4718 4.256 31.7678 4.144 30.9198 4.144C29.9118 4.144 29.0798 4.296 28.4238 4.6C27.7678 4.888 27.2798 5.28 26.9598 5.776C26.6398 6.272 26.4478 6.816 26.3838 7.408H21.8718Z" fill="white"/>
</svg>
