<svg width="40" height="20" viewBox="0 0 40 20" fill="none" xmlns="http://www.w3.org/2000/svg">
<path d="M10.016 19.384C7.984 19.384 6.224 18.992 4.736 18.208C3.248 17.424 2.096 16.336 1.28 14.944C0.464 13.536 0.0560001 11.888 0.0560001 10C0.0560001 8.128 0.464 6.488 1.28 5.08C2.096 3.672 3.248 2.576 4.736 1.792C6.224 1.008 7.984 0.615999 10.016 0.615999C12.032 0.615999 13.784 1.008 15.272 1.792C16.76 2.576 17.912 3.672 18.728 5.08C19.544 6.472 19.952 8.112 19.952 10C19.952 11.872 19.544 13.512 18.728 14.92C17.912 16.328 16.76 17.424 15.272 18.208C13.784 18.992 12.032 19.384 10.016 19.384ZM10.016 15.688C11.728 15.688 13.056 15.192 14 14.2C14.96 13.208 15.44 11.808 15.44 10C15.44 8.192 14.96 6.792 14 5.8C13.056 4.808 11.728 4.312 10.016 4.312C8.304 4.312 6.968 4.808 6.008 5.8C5.048 6.792 4.568 8.192 4.568 10C4.568 11.808 5.048 13.208 6.008 14.2C6.968 15.192 8.304 15.688 10.016 15.688ZM22.2078 6.76C22.2878 5.624 22.6878 4.592 23.4078 3.664C24.1278 2.736 25.1518 2 26.4798 1.456C27.8238 0.895999 29.4478 0.615999 31.3518 0.615999C32.9838 0.615999 34.3998 0.831999 35.5998 1.264C36.8158 1.68 37.7598 2.264 38.4318 3.016C39.1038 3.752 39.4398 4.624 39.4398 5.632C39.4398 6.448 39.1918 7.192 38.6958 7.864C38.2158 8.52 37.4558 9.048 36.4158 9.448C35.3758 9.832 34.0478 10.016 32.4318 10V9.52C33.9678 9.44 35.2878 9.552 36.3918 9.856C37.4958 10.16 38.3438 10.64 38.9358 11.296C39.5278 11.952 39.8238 12.776 39.8238 13.768C39.8238 14.856 39.4798 15.824 38.7918 16.672C38.1038 17.504 37.0958 18.168 35.7678 18.664C34.4558 19.144 32.8558 19.384 30.9678 19.384C29.1278 19.384 27.5198 19.128 26.1438 18.616C24.7838 18.088 23.7198 17.36 22.9518 16.432C22.1998 15.488 21.7918 14.384 21.7278 13.12H26.2398C26.3678 14 26.8158 14.68 27.5838 15.16C28.3678 15.624 29.4958 15.856 30.9678 15.856C32.3598 15.856 33.4158 15.648 34.1358 15.232C34.8718 14.8 35.2398 14.2 35.2398 13.432C35.2398 12.984 35.1198 12.616 34.8798 12.328C34.6398 12.024 34.2318 11.792 33.6558 11.632C33.0798 11.472 32.2798 11.392 31.2558 11.392H28.1358V8.296H31.2558C32.5838 8.296 33.5198 8.112 34.0638 7.744C34.6078 7.36 34.8798 6.864 34.8798 6.256C34.8798 5.584 34.5598 5.064 33.9198 4.696C33.2958 4.328 32.3518 4.144 31.0878 4.144C29.7758 4.144 28.7518 4.376 28.0158 4.84C27.2958 5.288 26.8638 5.928 26.7198 6.76H22.2078Z" fill="white"/>
</svg>
