<svg width="41" height="20" viewBox="0 0 41 20" fill="none" xmlns="http://www.w3.org/2000/svg">
<path d="M10.016 19.384C7.984 19.384 6.224 18.992 4.736 18.208C3.248 17.424 2.096 16.336 1.28 14.944C0.464 13.536 0.0560001 11.888 0.0560001 10C0.0560001 8.128 0.464 6.488 1.28 5.08C2.096 3.672 3.248 2.576 4.736 1.792C6.224 1.008 7.984 0.615999 10.016 0.615999C12.032 0.615999 13.784 1.008 15.272 1.792C16.76 2.576 17.912 3.672 18.728 5.08C19.544 6.472 19.952 8.112 19.952 10C19.952 11.872 19.544 13.512 18.728 14.92C17.912 16.328 16.76 17.424 15.272 18.208C13.784 18.992 12.032 19.384 10.016 19.384ZM10.016 15.688C11.728 15.688 13.056 15.192 14 14.2C14.96 13.208 15.44 11.808 15.44 10C15.44 8.192 14.96 6.792 14 5.8C13.056 4.808 11.728 4.312 10.016 4.312C8.304 4.312 6.968 4.808 6.008 5.8C5.048 6.792 4.568 8.192 4.568 10C4.568 11.808 5.048 13.208 6.008 14.2C6.968 15.192 8.304 15.688 10.016 15.688ZM37.5918 0.999999V19H33.1038V2.968H34.5678L24.9678 13.576L24.9198 12.136H40.5678V15.544H21.5838V12.328L31.8558 0.999999H37.5918Z" fill="white"/>
</svg>
