<svg width="40" height="20" viewBox="0 0 40 20" fill="none" xmlns="http://www.w3.org/2000/svg">
<path d="M10.016 19.384C7.984 19.384 6.224 18.992 4.736 18.208C3.248 17.424 2.096 16.336 1.28 14.944C0.464 13.536 0.0560001 11.888 0.0560001 10C0.0560001 8.128 0.464 6.488 1.28 5.08C2.096 3.672 3.248 2.576 4.736 1.792C6.224 1.008 7.984 0.615999 10.016 0.615999C12.032 0.615999 13.784 1.008 15.272 1.792C16.76 2.576 17.912 3.672 18.728 5.08C19.544 6.472 19.952 8.112 19.952 10C19.952 11.872 19.544 13.512 18.728 14.92C17.912 16.328 16.76 17.424 15.272 18.208C13.784 18.992 12.032 19.384 10.016 19.384ZM10.016 15.688C11.728 15.688 13.056 15.192 14 14.2C14.96 13.208 15.44 11.808 15.44 10C15.44 8.192 14.96 6.792 14 5.8C13.056 4.808 11.728 4.312 10.016 4.312C8.304 4.312 6.968 4.808 6.008 5.8C5.048 6.792 4.568 8.192 4.568 10C4.568 11.808 5.048 13.208 6.008 14.2C6.968 15.192 8.304 15.688 10.016 15.688ZM23.9838 0.999999H37.8558V4.408H25.3518L27.1758 3.544L26.1678 10.312H25.0158C25.3678 9.72 25.8478 9.176 26.4558 8.68C27.0798 8.184 27.8398 7.784 28.7358 7.48C29.6318 7.176 30.6718 7.024 31.8558 7.024C33.3918 7.024 34.7118 7.28 35.8158 7.792C36.9198 8.304 37.7678 9.008 38.3598 9.904C38.9678 10.8 39.2718 11.832 39.2718 13C39.2718 14.232 38.9278 15.328 38.2398 16.288C37.5518 17.248 36.5598 18.008 35.2638 18.568C33.9838 19.112 32.4478 19.384 30.6558 19.384C28.8958 19.384 27.3678 19.128 26.0718 18.616C24.7758 18.104 23.7598 17.408 23.0238 16.528C22.2878 15.632 21.8558 14.64 21.7278 13.552H26.2398C26.4158 14.256 26.8798 14.816 27.6318 15.232C28.3998 15.648 29.4078 15.856 30.6558 15.856C31.5038 15.856 32.2318 15.744 32.8398 15.52C33.4478 15.28 33.9198 14.944 34.2558 14.512C34.5918 14.08 34.7598 13.568 34.7598 12.976C34.7598 12.416 34.6078 11.92 34.3038 11.488C34.0158 11.056 33.5758 10.72 32.9838 10.48C32.4078 10.24 31.6878 10.12 30.8238 10.12C30.1038 10.12 29.4558 10.2 28.8798 10.36C28.3198 10.52 27.8238 10.728 27.3918 10.984C26.9758 11.24 26.6318 11.504 26.3598 11.776H22.4718L23.9838 0.999999Z" fill="white"/>
</svg>
