<svg width="41" height="20" viewBox="0 0 41 20" fill="none" xmlns="http://www.w3.org/2000/svg">
<path d="M10.016 19.384C7.984 19.384 6.224 18.992 4.736 18.208C3.248 17.424 2.096 16.336 1.28 14.944C0.464 13.536 0.0560001 11.888 0.0560001 10C0.0560001 8.128 0.464 6.488 1.28 5.08C2.096 3.672 3.248 2.576 4.736 1.792C6.224 1.008 7.984 0.615999 10.016 0.615999C12.032 0.615999 13.784 1.008 15.272 1.792C16.76 2.576 17.912 3.672 18.728 5.08C19.544 6.472 19.952 8.112 19.952 10C19.952 11.872 19.544 13.512 18.728 14.92C17.912 16.328 16.76 17.424 15.272 18.208C13.784 18.992 12.032 19.384 10.016 19.384ZM10.016 15.688C11.728 15.688 13.056 15.192 14 14.2C14.96 13.208 15.44 11.808 15.44 10C15.44 8.192 14.96 6.792 14 5.8C13.056 4.808 11.728 4.312 10.016 4.312C8.304 4.312 6.968 4.808 6.008 5.8C5.048 6.792 4.568 8.192 4.568 10C4.568 11.808 5.048 13.208 6.008 14.2C6.968 15.192 8.304 15.688 10.016 15.688ZM31.6878 0.615999C33.2238 0.615999 34.5758 0.847999 35.7438 1.312C36.9278 1.776 37.8878 2.408 38.6238 3.208C39.3598 3.992 39.8078 4.888 39.9678 5.896H35.7438C35.5038 5.352 35.0798 4.904 34.4718 4.552C33.8638 4.184 32.9758 4 31.8078 4C30.5598 4 29.5278 4.232 28.7118 4.696C27.9118 5.16 27.3198 5.824 26.9358 6.688C26.5518 7.536 26.3598 8.584 26.3598 9.832C26.3598 11.16 26.5678 12.288 26.9838 13.216C27.4158 14.128 28.0478 14.816 28.8798 15.28C29.7118 15.744 30.7278 15.976 31.9278 15.976C32.7758 15.976 33.4878 15.864 34.0638 15.64C34.6558 15.4 35.0958 15.072 35.3838 14.656C35.6878 14.24 35.8398 13.776 35.8398 13.264C35.8398 12.752 35.6958 12.304 35.4078 11.92C35.1358 11.536 34.7278 11.24 34.1838 11.032C33.6398 10.808 32.9438 10.696 32.0958 10.696C30.9758 10.696 29.9198 10.952 28.9278 11.464C27.9358 11.96 27.0558 12.664 26.2878 13.576L24.6798 12.472C25.1918 11.48 25.8478 10.6 26.6478 9.832C27.4478 9.048 28.3918 8.432 29.4798 7.984C30.5678 7.52 31.7998 7.288 33.1758 7.288C34.6478 7.288 35.9198 7.536 36.9918 8.032C38.0798 8.512 38.9118 9.192 39.4878 10.072C40.0798 10.952 40.3758 11.968 40.3758 13.12C40.3758 14.336 40.0398 15.416 39.3678 16.36C38.6958 17.304 37.7278 18.048 36.4638 18.592C35.1998 19.12 33.6718 19.384 31.8798 19.384C29.7038 19.384 27.8878 18.984 26.4318 18.184C24.9918 17.384 23.9038 16.28 23.1678 14.872C22.4478 13.448 22.0878 11.824 22.0878 10C22.0878 8.176 22.4478 6.56 23.1678 5.152C23.8878 3.744 24.9598 2.64 26.3838 1.84C27.8238 1.024 29.5918 0.615999 31.6878 0.615999Z" fill="white"/>
</svg>
